# xmcd CD database file
# Copyright (C) 1995-1998 Ti Kan
#
# Track frame offsets:
#	150
#	20134
#	41652
#	62814
#	84164
#	99640
#	113050
#	132829
#	156486
#	175630
#	197490
#	213172
#	232059
#	253213
#	272786
#	291911
#	311632
#
# Disc length: 4382 seconds
#
# Revision: 1
# Processed by: cddbd v1.4b42PL1 Copyright (c) Steve Scherf et al.
# Submitted via: CDex 1.40Beta3
#
DISCID=f7111c11
DTITLE=Lam Truong and Dan Truong and Bang Kieu and Quang Linh - Tu Dai Long Vuong
DYEAR=1900
DGENRE=Blues
TTITLE0=Dan Truong - Hoi Tiec
TTITLE1=Lam Truong - Tinh Phai
TTITLE2=Bang Kieu - Giac Mo Mua Dong
TTITLE3=Quang Linh - Tieng Hat Chim Da Da
TTITLE4=Dan Truong - Kiep Rong Buon
TTITLE5=Lam Truong - The Gioi Them Nam 2000
TTITLE6=Bang Kieu - Chi Con Mua Roi
TTITLE7=Quang Linh - Tien Dua
TTITLE8=Dan Truong - Tinh Trong Con Mua
TTITLE9=Lam Truong - Toi Ngan Nam Doi
TTITLE10=Bang Kieu - Giac Mo Buon
TTITLE11=Quang Linh - Kiep Con Trai
TTITLE12=Dan Truong - Tinh Quay Got
TTITLE13=Lam Truong - Trai Tim Dang Yeu
TTITLE14=Bang Kieu - Mo Thay Em Ve
TTITLE15=Quang Linh - Em Da Quen Mot Dong Song
TTITLE16=Lam Truong - Em Dau Roi
EXTD=ID3G:   0
EXTT0=
EXTT1=
EXTT2=
EXTT3=
EXTT4=
EXTT5=
EXTT6=
EXTT7=
EXTT8=
EXTT9=
EXTT10=
EXTT11=
EXTT12=
EXTT13=
EXTT14=
EXTT15=
EXTT16=
PLAYORDER=
